<svg width="220" height="220" viewBox="0 0 220 220" xmlns="http://www.w3.org/2000/svg" fill="none">
  <defs>
    <linearGradient id="wingGlow" x1="0" y1="0" x2="1" y2="1">
      <stop offset="0%" stop-color="#19f2ff"/>
      <stop offset="50%" stop-color="#4d83ff"/>
      <stop offset="100%" stop-color="#ff5a2f"/>
    </linearGradient>
    <filter id="neon" x="-50%" y="-50%" width="200%" height="200%">
      <feGaussianBlur stdDeviation="2.6" result="blur"/>
      <feMerge>
        <feMergeNode in="blur"/>
        <feMergeNode in="SourceGraphic"/>
      </feMerge>
    </filter>
  </defs>
  <circle cx="110" cy="110" r="90" stroke="url(#wingGlow)" stroke-opacity="0.45"/>
  <path filter="url(#neon)" d="M110 28c-8 19-5 30 7 45-15-6-29-4-44 6 11 1 21 7 30 19-20 1-36 10-47 28 17-6 33-4 49 5-17 8-25 20-25 36 9-11 20-18 34-21 1 17 8 31 21 42 9-19 12-38 10-57 13 8 20 20 22 37 8-23 4-43-10-60 14-3 27 2 39 13-4-18-15-31-33-38 16-9 31-10 46-3-12-16-27-25-45-25 10-11 21-17 34-18-14-8-29-10-45-4 11-13 14-27 7-44-12 10-22 23-29 39-7-16-16-29-28-40Z" stroke="url(#wingGlow)" stroke-width="4"/>
  <path d="M109 75c15 14 22 31 22 50s-7 36-22 50c-14-14-22-31-22-50s8-36 22-50Z" fill="#041126" stroke="#19f2ff" stroke-opacity="0.6"/>
</svg>
